<svg width="15" height="16" viewBox="0 0 15 16" fill="none" xmlns="http://www.w3.org/2000/svg">
<path fill-rule="evenodd" clip-rule="evenodd" d="M12.818 2.08386C12.6246 1.91787 12.377 1.82866 12.1222 1.83317L12.1134 1.83333L10.8334 1.83325V8.16658H12.1222C12.377 8.17109 12.6246 8.08196 12.818 7.91597C13.0036 7.75659 13.1269 7.53708 13.1667 7.29628V2.70355C13.1269 2.46276 13.0036 2.24324 12.818 2.08386ZM9.83335 8.56047L7.35619 14.1341C7.07417 14.0744 6.81297 13.9342 6.60603 13.7272C6.32472 13.4459 6.16669 13.0644 6.16669 12.6666V9.99992C6.16669 9.72377 5.94283 9.49992 5.66669 9.49992H1.89335L1.88769 9.49995C1.7669 9.50132 1.64725 9.4764 1.53704 9.42694C1.42683 9.37747 1.32869 9.30464 1.24942 9.21348C1.17015 9.12232 1.11165 9.01502 1.07797 8.89901C1.04432 8.78311 1.03625 8.66128 1.05431 8.54195C1.05429 8.54207 1.05432 8.54184 1.05431 8.54195L1.97437 2.54155C2.0045 2.34284 2.10544 2.16171 2.25857 2.03155C2.41171 1.90138 2.60673 1.83094 2.8077 1.83322L9.83335 1.83325V8.56047ZM12.1092 0.833249C12.6074 0.825593 13.0912 1.0005 13.4693 1.32506C13.8486 1.65065 14.0952 2.10418 14.1622 2.59956C14.1652 2.62177 14.1667 2.64417 14.1667 2.66658V7.33325C14.1667 7.35566 14.1652 7.37806 14.1622 7.40027C14.0952 7.89565 13.8486 8.34918 13.4693 8.67477C13.0912 8.99933 12.6074 9.17424 12.1092 9.16658H10.6583L8.12359 14.8697C8.04334 15.0502 7.86428 15.1666 7.66669 15.1666C7.00365 15.1666 6.36776 14.9032 5.89892 14.4343C5.43008 13.9655 5.16669 13.3296 5.16669 12.6666V10.4999H1.89599C1.63127 10.5025 1.36912 10.4477 1.12757 10.3393C0.885109 10.2304 0.669202 10.0702 0.494812 9.86966C0.320422 9.66911 0.191719 9.43305 0.117621 9.17782C0.0435225 8.92259 0.0258001 8.65431 0.0656821 8.39155L0.985672 2.39161C0.98565 2.39176 0.985695 2.39147 0.985672 2.39161C1.05205 1.95462 1.27414 1.55588 1.61093 1.26961C1.94705 0.983901 2.3749 0.828996 2.81596 0.833249H12.1092Z" fill="#818181"/>
</svg>
