<svg width="170" height="67" viewBox="0 0 170 67" fill="none" xmlns="http://www.w3.org/2000/svg">
<g clip-path="url(#clip0_1_780)">
<path d="M75.5153 48.4843C96.1737 60.4711 116.744 63.5327 121.46 55.3229C126.177 47.113 113.253 30.7404 92.5949 18.7536C71.9366 6.76691 51.3663 3.70509 46.6498 11.915C41.9335 20.1248 54.857 36.4976 75.5153 48.4843Z" stroke="#959595" stroke-width="0.5" stroke-miterlimit="10"/>
<path d="M71.9779 45.7565C88.8454 62.7084 107.926 71.0163 114.596 64.313C121.266 57.6096 113 38.4334 96.1321 21.4815C79.2647 4.52971 60.1837 -3.77841 53.5137 2.92499C46.8438 9.62826 55.1104 28.8047 71.9779 45.7565Z" stroke="#CACACA" stroke-width="0.5" stroke-miterlimit="10"/>
<path d="M10.1042 41.0314C6.77083 41.0314 4.25 40.3196 2.54167 38.8958C0.847222 37.4721 0 35.3644 0 32.5727C0 29.5019 0.861111 27.2476 2.58333 25.8099C4.30556 24.3722 6.84722 23.6533 10.2083 23.6533C13.7917 23.6533 16.4167 24.3652 18.0833 25.7889C19.75 27.1987 20.5833 29.2785 20.5833 32.0283C20.5833 35.141 19.7014 37.4232 17.9375 38.8749C16.1736 40.3126 13.5625 41.0314 10.1042 41.0314ZM9.64583 33.6824H10.9167L11.5283 30.9877H9.02832L9.64583 33.6824Z" fill="black"/>
<path d="M21.5911 40.6546C21.4661 40.3614 21.3689 39.9916 21.2995 39.5449C21.23 39.0982 21.1884 38.6376 21.1745 38.163C21.1606 37.6745 21.1745 37.2069 21.2161 36.7602C21.2717 36.3135 21.3481 35.9436 21.4453 35.6505C21.6536 35.5668 21.855 35.4272 22.0495 35.2318C22.2578 35.0224 22.4314 34.6944 22.5703 34.2477C22.7092 33.7871 22.7786 33.145 22.7786 32.3214C22.7786 31.4281 22.6953 30.7581 22.5286 30.3114C22.3759 29.8508 22.1884 29.5437 21.9661 29.3902C21.7578 29.2227 21.5703 29.1389 21.4036 29.1389C21.2786 28.8877 21.1884 28.5457 21.1328 28.113C21.0773 27.6803 21.0495 27.2197 21.0495 26.7311C21.0634 26.2286 21.105 25.7471 21.1745 25.2864C21.2439 24.8119 21.3481 24.4071 21.487 24.0721C22.5148 24.1139 23.4384 24.1209 24.2578 24.093C25.0911 24.0651 25.9175 24.0232 26.737 23.9674C27.5703 23.9115 28.4731 23.8627 29.4453 23.8208C30.4314 23.765 31.5911 23.7371 32.9245 23.7371C34.8828 23.7371 36.5356 23.9115 37.8828 24.2605C39.23 24.5955 40.2509 25.2167 40.9453 26.1239C41.6536 27.0173 42.0078 28.2945 42.0078 29.9555C42.0078 31.3932 41.737 32.5448 41.1953 33.4102C40.6675 34.2756 39.9036 34.9037 38.9036 35.2946C37.9036 35.6714 36.7023 35.8599 35.2995 35.8599C34.4106 35.8599 33.7023 35.7901 33.1745 35.6505C32.6467 35.497 32.1606 35.162 31.7161 34.6455L31.2786 35.0433C31.6398 35.476 32.0773 35.811 32.5911 36.0483C33.105 36.2717 33.7439 36.3973 34.5078 36.4252C34.6328 36.816 34.6153 37.0134 34.8616 37.6877C34.9863 38.0289 34.8616 38.1064 35.2783 38.9439C35.4866 39.3627 35.8478 40.2141 35.695 40.6189C35.0144 40.5631 32.7578 40.508 31.5495 40.4243C30.355 40.3405 28.987 40.3056 27.4453 40.3196C26.6675 40.3196 25.9036 40.3405 25.1536 40.3824C24.4036 40.4243 23.7161 40.4661 23.0911 40.508C22.48 40.5638 21.98 40.6127 21.5911 40.6546ZM31.2786 31.4211H32.5495L33.3828 30.0183H30.4453L31.2786 31.4211Z" fill="black"/>
<path d="M43.4748 40.6546C43.3637 40.3614 43.2734 39.9916 43.2039 39.5449C43.1345 39.0982 43.0928 38.6376 43.0789 38.163C43.0789 37.6745 43.0928 37.2069 43.1206 36.7602C43.1623 36.3135 43.2317 35.9436 43.3289 35.6505C43.5512 35.5668 43.7664 35.4272 43.9748 35.2318C44.1831 35.0224 44.3567 34.6944 44.4956 34.2477C44.6345 33.7871 45.5373 33.145 45.5373 32.3214C45.5373 31.4281 44.6206 30.7581 44.4539 30.3114C44.3012 29.8508 44.1137 29.5437 43.8914 29.3902C43.6831 29.2227 43.4956 29.1389 43.3289 29.1389C43.2039 28.8877 43.1137 28.5457 43.0581 28.113C43.0025 27.6803 42.9748 27.2197 42.9748 26.7311C42.9887 26.2286 43.0303 25.7471 43.0998 25.2864C43.1692 24.8119 43.2734 24.4071 43.4123 24.0721C43.6345 24.086 43.9956 24.107 44.4956 24.1349C45.0095 24.1488 45.5998 24.1698 46.2664 24.1977C46.947 24.2117 47.6553 24.2256 48.3914 24.2396C49.1275 24.2535 49.8498 24.2675 50.5581 24.2814C51.2803 24.2814 51.9262 24.2814 52.4956 24.2814C53.9539 24.2814 55.572 24.2605 57.3498 24.2186C59.1414 24.1768 60.9192 24.1209 62.6831 24.0511C62.7525 24.3163 62.815 24.7002 62.8706 25.2027C62.9262 25.7052 62.9678 26.2635 62.9956 26.8777C63.0234 27.4919 63.0373 28.113 63.0373 28.7411C63.0373 29.3693 63.0164 29.9485 62.9748 30.4789C62.9331 30.9954 62.8706 31.4002 62.7873 31.6933C62.1345 31.7771 61.4123 31.8329 60.6206 31.8608C59.8289 31.8887 59.0234 31.8887 58.2039 31.8608C57.3984 31.8329 56.6345 31.7771 55.9123 31.6933C55.7456 31.0373 55.7456 29.5507 55.9123 28.9086H53.4956V30.6255H55.4331V33.5358H53.4748V35.2736H55.9123C55.7456 34.6176 55.7456 33.124 55.9123 32.468C57.0789 32.3982 58.2734 32.3633 59.4956 32.3633C60.7178 32.3633 61.8567 32.3982 62.9123 32.468C62.9539 32.7193 62.9887 33.124 63.0164 33.6824C63.0442 34.2268 63.0581 34.8479 63.0581 35.5458C63.0581 36.2298 63.0442 36.9207 63.0164 37.6186C63.0025 38.3165 62.9748 38.9377 62.9331 39.4821C62.8914 40.0264 62.8359 40.4173 62.7664 40.6546C61.3081 40.6267 59.7248 40.5638 58.0164 40.4661C56.3081 40.3824 54.6345 40.3405 52.9956 40.3405C52.1067 40.3405 51.1692 40.3475 50.1831 40.3614C49.2109 40.3894 48.2664 40.4173 47.3498 40.4452C46.447 40.4871 45.6484 40.522 44.9539 40.5499C44.2734 40.5918 43.7803 40.6267 43.4748 40.6546Z" fill="black"/>
<path d="M64.4845 40.6546C64.3734 40.3614 64.2831 39.9916 64.2137 39.5449C64.1442 39.0982 64.1026 38.6376 64.0887 38.163C64.0887 37.6745 64.1026 37.2069 64.1304 36.7602C64.172 36.3135 64.2415 35.9436 64.3387 35.6505C64.5609 35.5668 64.7762 35.4272 64.9845 35.2318C65.1929 35.0224 65.3665 34.6944 65.5054 34.2477C65.6443 33.7871 65.7137 33.145 65.7137 32.3214C65.7137 31.4281 65.6304 30.7581 65.4637 30.3114C65.3109 29.8508 65.1234 29.5437 64.9012 29.3902C64.6929 29.2227 64.5054 29.1389 64.3387 29.1389C64.2137 28.8877 64.1234 28.5457 64.0679 28.113C64.0123 27.6803 63.9845 27.2197 63.9845 26.7311C63.9984 26.2286 64.0401 25.7471 64.1095 25.2864C64.179 24.8119 64.2831 24.4071 64.422 24.0721C64.8109 24.1 65.2623 24.1419 65.7762 24.1977C66.304 24.2396 66.8387 24.2814 67.3804 24.3233C67.9359 24.3512 68.4498 24.3652 68.922 24.3652C69.9359 24.3652 70.9984 24.3443 72.1095 24.3024C73.2345 24.2465 74.5401 24.1698 76.0262 24.0721C75.804 24.9933 75.7137 25.7471 75.7554 26.3333C75.8109 26.9196 76.0679 27.4291 76.5262 27.8618C76.9845 28.2945 77.6929 28.7411 78.6512 29.2018L79.7634 29.4111L78.922 28.6574C78.047 28.2386 77.4081 27.8478 77.0054 27.4849C76.6165 27.108 76.4081 26.6613 76.3804 26.1449C76.3526 25.6145 76.4429 24.9235 76.6512 24.0721C77.2484 24.086 77.922 24.1419 78.672 24.2396C79.4359 24.3373 80.304 24.3861 81.2762 24.3861C82.1373 24.3861 82.9151 24.3512 83.6095 24.2814C84.3179 24.1977 84.9568 24.1279 85.5262 24.0721C85.6512 24.4071 85.7484 24.8119 85.8179 25.2864C85.8873 25.7471 85.922 26.2286 85.922 26.7311C85.922 27.2336 85.8943 27.7012 85.8387 28.1339C85.7831 28.5667 85.6998 28.9086 85.5887 29.1599C85.422 29.1599 85.2276 29.2436 85.0054 29.4111C84.797 29.5647 84.6165 29.8648 84.4637 30.3114C84.3109 30.7581 84.2345 31.4281 84.2345 32.3214C84.2345 33.145 84.304 33.7871 84.4429 34.2477C84.5817 34.6944 84.7554 35.0224 84.9637 35.2318C85.172 35.4272 85.3873 35.5668 85.6095 35.6505C85.7068 35.9436 85.7692 36.3135 85.797 36.7602C85.8387 37.2069 85.8526 37.6745 85.8387 38.163C85.8387 38.6376 85.804 39.0982 85.7345 39.5449C85.6651 39.9916 85.5748 40.3614 85.4637 40.6546C84.9081 40.5848 84.2067 40.508 83.3595 40.4243C82.5262 40.3545 81.6581 40.3196 80.7554 40.3196C79.5887 40.3196 78.4567 40.3614 77.3595 40.4452C76.2623 40.5289 75.0748 40.5987 73.797 40.6546C73.9915 39.7333 74.0679 38.9586 74.0262 38.3305C73.9845 37.7024 73.797 37.151 73.4637 36.6764C73.1304 36.1879 72.6304 35.7273 71.9637 35.2946L70.695 34.7564L71.6304 35.7971C72.2276 36.2019 72.6651 36.6276 72.9429 37.0743C73.2206 37.507 73.3665 38.0164 73.3804 38.6027C73.4081 39.175 73.3317 39.8589 73.1512 40.6546C72.6929 40.5987 72.1304 40.5289 71.4637 40.4452C70.8109 40.3614 70.0331 40.3196 69.1304 40.3196C68.2831 40.3196 67.4359 40.3614 66.5887 40.4452C65.7554 40.5289 65.054 40.5987 64.4845 40.6546Z" fill="black"/>
<path d="M87.2415 40.6546C87.1304 40.3614 87.0401 39.9916 86.9707 39.5449C86.9013 39.0982 86.8596 38.6376 86.8457 38.163C86.8457 37.6745 86.8596 37.2069 86.8874 36.7602C86.929 36.3135 86.9985 35.9436 87.0957 35.6505C87.3179 35.5668 87.554 35.4272 87.804 35.2318C88.054 35.0363 88.2901 34.7153 88.5124 34.2686C88.7485 33.822 88.929 33.1938 89.054 32.3843C89.1651 31.7143 89.1929 31.1699 89.1374 30.7511C89.0818 30.3184 88.9776 29.9904 88.8249 29.7671C88.686 29.5298 88.5332 29.3693 88.3665 29.2855C88.2138 29.1878 88.0818 29.1389 87.9707 29.1389C87.8457 28.8877 87.7554 28.5457 87.6999 28.113C87.6443 27.6803 87.6165 27.2197 87.6165 26.7311C87.6304 26.2286 87.6721 25.7471 87.7415 25.2864C87.811 24.8119 87.9151 24.4071 88.054 24.0721C88.5818 24.1279 89.2207 24.1907 89.9707 24.2605C90.7346 24.3303 91.5957 24.3652 92.554 24.3652C93.3318 24.3652 94.1513 24.3512 95.0124 24.3233C95.8874 24.2954 96.7346 24.2605 97.554 24.2186C98.3735 24.1768 99.0888 24.1279 99.6999 24.0721C99.6165 24.6025 99.5957 25.2655 99.6374 26.0611C99.6929 26.8568 99.9082 27.6245 100.283 28.3643C100.297 27.5965 100.318 26.8288 100.346 26.0611C100.387 25.2795 100.457 24.6164 100.554 24.0721C101.137 24.1 101.686 24.1419 102.2 24.1977C102.714 24.2396 103.248 24.2814 103.804 24.3233C104.373 24.3512 105.019 24.3652 105.742 24.3652C106.214 24.3652 106.755 24.3512 107.367 24.3233C107.978 24.2814 108.568 24.2396 109.137 24.1977C109.707 24.1419 110.165 24.1 110.512 24.0721C110.651 24.4071 110.755 24.8119 110.825 25.2864C110.894 25.7471 110.929 26.2286 110.929 26.7311C110.943 27.2197 110.922 27.6803 110.867 28.113C110.811 28.5457 110.721 28.8877 110.596 29.1389C110.498 29.1389 110.367 29.1878 110.2 29.2855C110.047 29.3693 109.901 29.5298 109.762 29.7671C109.637 29.9904 109.561 30.3114 109.533 30.7302C109.505 31.135 109.561 31.6724 109.7 32.3424C109.88 33.152 110.075 33.7871 110.283 34.2477C110.505 34.6944 110.728 35.0224 110.95 35.2318C111.186 35.4272 111.415 35.5668 111.637 35.6505C111.735 35.9436 111.797 36.3135 111.825 36.7602C111.867 37.2069 111.88 37.6745 111.867 38.163C111.867 38.6376 111.832 39.0982 111.762 39.5449C111.693 39.9916 111.603 40.3614 111.492 40.6546C110.922 40.5987 110.228 40.5289 109.408 40.4452C108.603 40.3614 107.582 40.3196 106.346 40.3196C105.165 40.3196 104.04 40.3614 102.971 40.4452C101.915 40.5289 101.103 40.5987 100.533 40.6546C100.478 40.3614 100.429 39.9916 100.387 39.5449C100.346 39.0982 100.318 38.6376 100.304 38.163C100.29 37.6745 100.29 37.2069 100.304 36.7602C100.318 36.3135 100.346 35.9436 100.387 35.6505H101.117L100.908 33.3055L99.679 36.8649L95.6374 35.0852L95.3874 35.6505L97.6582 36.6764C97.9776 36.816 98.2832 36.9696 98.5749 37.1371C98.8665 37.2906 99.1165 37.5 99.3249 37.7652C99.5332 38.0304 99.6721 38.3933 99.7415 38.8539C99.8249 39.3006 99.811 39.9008 99.6999 40.6546C99.436 40.6267 99.0679 40.5918 98.5957 40.5499C98.1235 40.522 97.5957 40.4871 97.0124 40.4452C96.4429 40.4173 95.8526 40.3894 95.2415 40.3614C94.6443 40.3335 94.0818 40.3196 93.554 40.3196C92.0124 40.3196 90.7068 40.3614 89.6374 40.4452C88.5818 40.5289 87.7832 40.5987 87.2415 40.6546Z" fill="black"/>
<path d="M113.32 40.6546C113.195 40.3614 113.098 39.9916 113.028 39.5449C112.959 39.0982 112.917 38.6376 112.903 38.163C112.89 37.6745 112.903 37.2069 112.945 36.7602C113.001 36.3135 113.077 35.9436 113.174 35.6505C113.383 35.5668 113.591 35.4272 113.799 35.2318C114.022 35.0224 114.202 34.6944 114.341 34.2477C114.48 33.7871 114.549 33.145 114.549 32.3214C114.549 31.4281 114.466 30.7581 114.299 30.3114C114.133 29.8508 113.938 29.5437 113.716 29.3902C113.508 29.2227 113.327 29.1389 113.174 29.1389C113.049 28.8877 112.952 28.5457 112.883 28.113C112.813 27.6803 112.778 27.2197 112.778 26.7311C112.792 26.2286 112.834 25.7471 112.903 25.2864C112.987 24.8119 113.105 24.4071 113.258 24.0721C113.674 24.1 114.209 24.1419 114.862 24.1977C115.515 24.2535 116.202 24.3024 116.924 24.3443C117.66 24.3722 118.341 24.3861 118.966 24.3861C119.66 24.3861 120.376 24.3722 121.112 24.3443C121.848 24.3024 122.542 24.2535 123.195 24.1977C123.848 24.1419 124.383 24.1 124.799 24.0721C124.938 24.4071 125.042 24.8119 125.112 25.2864C125.181 25.7471 125.216 26.2286 125.216 26.7311C125.216 27.2336 125.188 27.7012 125.133 28.1339C125.077 28.5667 124.987 28.9086 124.862 29.1599C124.653 29.1599 124.445 29.2436 124.237 29.4111C124.028 29.5647 123.855 29.8648 123.716 30.3114C123.577 30.7581 123.508 31.4281 123.508 32.3214C123.508 33.145 123.577 33.7871 123.716 34.2477C123.869 34.6944 124.049 35.0224 124.258 35.2318C124.466 35.4272 124.674 35.5668 124.883 35.6505C124.994 35.9436 125.07 36.3135 125.112 36.7602C125.153 37.2069 125.167 37.6745 125.153 38.163C125.14 38.6376 125.098 39.0982 125.028 39.5449C124.959 39.9916 124.862 40.3614 124.737 40.6546C124.32 40.6127 123.785 40.5638 123.133 40.508C122.48 40.4661 121.785 40.4243 121.049 40.3824C120.313 40.3405 119.598 40.3196 118.903 40.3196C118.265 40.3196 117.591 40.3405 116.883 40.3824C116.188 40.4243 115.522 40.4661 114.883 40.508C114.258 40.5638 113.737 40.6127 113.32 40.6546Z" fill="black"/>
<path d="M159.771 40.8011C158.66 40.8011 157.688 40.7802 156.854 40.7383C156.021 40.7104 155.236 40.6755 154.5 40.6336C153.764 40.6057 153 40.5848 152.208 40.5708C151.417 40.5708 150.507 40.5918 149.479 40.6336C149.368 40.3405 149.278 39.9776 149.208 39.5449C149.139 39.0982 149.097 38.6306 149.083 38.1421C149.083 37.6535 149.097 37.1929 149.125 36.7602C149.167 36.3135 149.236 35.9436 149.333 35.6505C149.625 35.5668 149.875 35.4132 150.083 35.1899C150.292 34.9526 150.452 34.5897 150.563 34.1011C150.674 33.6126 150.729 32.9496 150.729 32.1121C150.729 31.3164 150.66 30.7093 150.521 30.2905C150.396 29.8718 150.229 29.5786 150.021 29.4111C149.813 29.2436 149.583 29.1389 149.333 29.0971C149.195 28.6923 149.097 28.1828 149.042 27.5686C148.986 26.9405 148.986 26.3054 149.042 25.6633C149.111 25.0073 149.236 24.4489 149.417 23.9883C150.306 24.0721 151.146 24.1139 151.938 24.1139C152.743 24.1139 153.57 24.1 154.417 24.0721C155.264 24.0302 156.188 23.9953 157.188 23.9674C158.188 23.9255 159.333 23.9046 160.625 23.9046C163.57 23.9046 165.82 24.5187 167.375 25.7471C168.945 26.9754 169.729 28.9435 169.729 31.6514C169.729 32.5587 169.646 33.459 169.479 34.3524C169.327 35.2318 169.042 36.0623 168.625 36.8439C168.222 37.6117 167.646 38.2956 166.896 38.8958C166.146 39.4821 165.188 39.9497 164.021 40.2986C162.868 40.6336 161.452 40.8011 159.771 40.8011ZM158.833 33.5777H160.104L160.938 30.8768H158L158.833 33.5777Z" fill="black"/>
<path d="M126.931 40.6335C126.82 40.3403 126.729 39.9704 126.66 39.5238C126.59 39.0771 126.549 38.6165 126.535 38.1419C126.535 37.6534 126.549 37.1857 126.576 36.7391C126.618 36.2924 126.688 35.9225 126.785 35.6294C127.007 35.5456 127.222 35.4061 127.431 35.2106C127.639 35.0013 127.813 34.6732 127.951 34.2266C128.09 33.766 128.16 33.1239 128.16 32.3003C128.16 31.407 128.076 30.737 127.91 30.2903C127.757 29.8297 127.57 29.5226 127.347 29.3691C127.139 29.2016 126.951 29.1178 126.785 29.1178C126.66 28.8666 126.57 28.5246 126.514 28.0919C126.458 27.6592 126.431 27.1986 126.431 26.71C126.445 26.2075 126.486 25.726 126.556 25.2653C126.625 24.7907 126.729 24.386 126.868 24.051C127.257 24.0789 127.708 24.1207 128.222 24.1766C128.75 24.2185 129.285 24.2603 129.826 24.3022C130.382 24.3301 130.896 24.3441 131.368 24.3441C132.382 24.3441 133.445 24.3231 134.556 24.2813C135.681 24.2254 136.986 24.1487 138.472 24.051C138.25 24.9722 138.16 25.726 138.201 26.3122C138.257 26.8985 138.514 27.4079 138.972 27.8406C139.431 28.2734 140.139 28.72 141.097 29.1806L142.21 29.39L141.368 28.6363C140.493 28.2175 139.854 27.8267 139.451 27.4638C139.063 27.0869 138.854 26.6402 138.826 26.1238C138.799 25.5934 138.889 24.9024 139.097 24.051C139.695 24.0649 140.368 24.1207 141.118 24.2185C141.882 24.3162 142.75 24.365 143.722 24.365C144.583 24.365 145.361 24.3301 146.056 24.2603C146.764 24.1766 147.403 24.1068 147.972 24.051C148.097 24.386 148.195 24.7907 148.264 25.2653C148.333 25.726 148.368 26.2075 148.368 26.71C148.368 27.2125 148.34 27.6801 148.285 28.1128C148.229 28.5455 148.146 28.8875 148.035 29.1388C147.868 29.1388 147.674 29.2225 147.451 29.39C147.243 29.5436 147.063 29.8437 146.91 30.2903C146.757 30.737 146.681 31.407 146.681 32.3003C146.681 33.1239 146.75 33.766 146.889 34.2266C147.028 34.6732 147.201 35.0013 147.41 35.2106C147.618 35.4061 147.833 35.5456 148.056 35.6294C148.153 35.9225 148.215 36.2924 148.243 36.7391C148.285 37.1857 148.299 37.6534 148.285 38.1419C148.285 38.6165 148.25 39.0771 148.181 39.5238C148.111 39.9704 148.021 40.3403 147.91 40.6335C147.354 40.5637 146.653 40.4869 145.806 40.4031C144.972 40.3334 144.104 40.2985 143.201 40.2985C142.035 40.2985 140.903 40.3403 139.806 40.4241C138.708 40.5078 137.521 40.5776 136.243 40.6335C136.438 39.7122 136.514 38.9375 136.472 38.3094C136.431 37.6813 136.243 37.1299 135.91 36.6553C135.576 36.1668 135.076 35.7062 134.41 35.2735L133.141 34.7353L134.076 35.776C134.674 36.1807 135.111 36.6065 135.389 37.0531C135.667 37.4859 135.813 37.9953 135.826 38.5816C135.854 39.1539 135.778 39.8378 135.597 40.6335C135.139 40.5776 134.576 40.5078 133.91 40.4241C133.257 40.3403 132.479 40.2985 131.577 40.2985C130.729 40.2985 129.882 40.3403 129.035 40.4241C128.201 40.5078 127.5 40.5776 126.931 40.6335Z" fill="black"/>
<path d="M49.6997 51.2216C49.0139 51.2216 48.4898 51.034 48.1274 50.6589C47.6413 50.1987 47.3983 49.5357 47.3983 48.6698C47.3983 47.7865 47.6413 47.1235 48.1274 46.6807C48.4898 46.3056 49.0139 46.118 49.6997 46.118C50.3855 46.118 50.9095 46.3056 51.272 46.6807C51.7559 47.1235 51.9979 47.7865 51.9979 48.6698C51.9979 49.5357 51.7559 50.1987 51.272 50.6589C50.9095 51.034 50.3855 51.2216 49.6997 51.2216ZM50.647 49.926C50.8792 49.6316 50.9953 49.2129 50.9953 48.6698C50.9953 48.1289 50.8781 47.7113 50.6437 47.4168C50.4115 47.1202 50.0968 46.9719 49.6997 46.9719C49.3026 46.9719 48.9857 47.1191 48.7492 47.4135C48.5126 47.708 48.3943 48.1267 48.3943 48.6698C48.3943 49.2129 48.5126 49.6316 48.7492 49.926C48.9857 50.2205 49.3026 50.3677 49.6997 50.3677C50.0968 50.3677 50.4126 50.2205 50.647 49.926Z" fill="black"/>
<path d="M60.3872 49.3535H59.3683V51.0874H58.3722V46.2653H60.4621C60.9438 46.2653 61.3279 46.3896 61.6144 46.6382C61.9009 46.8868 62.0441 47.2718 62.0441 47.793C62.0441 48.3623 61.9009 48.7647 61.6144 49.0002C61.3279 49.2358 60.9189 49.3535 60.3872 49.3535ZM60.8559 48.3492C60.9861 48.2336 61.0512 48.0504 61.0512 47.7996C61.0512 47.5488 60.9851 47.3699 60.8527 47.2631C60.7225 47.1562 60.5391 47.1028 60.3026 47.1028H59.3683V48.5226H60.3026C60.5391 48.5226 60.7236 48.4648 60.8559 48.3492Z" fill="black"/>
<path d="M71.7192 48.9806H69.3885V50.2205H72.0447V51.0874H68.4087V46.2653H71.9275V47.1191H69.3885V48.1431H71.7192V48.9806Z" fill="black"/>
<path d="M82.2895 51.0874H81.2869L79.3273 47.6622V51.0874H78.393V46.2653H79.4445L81.3553 49.6316V46.2653H82.2895V51.0874Z" fill="black"/>
<path d="M89.7283 51.0874H88.7941V46.2653H90.2524L91.1248 50.0569L91.9907 46.2653H93.4328V51.0874H92.4985V47.8258C92.4985 47.732 92.4996 47.6011 92.5018 47.4332C92.5039 47.2631 92.505 47.1322 92.505 47.0406L91.5968 51.0874H90.6235L89.7218 47.0406C89.7218 47.1322 89.7229 47.2631 89.7251 47.4332C89.7272 47.6011 89.7283 47.732 89.7283 47.8258V51.0874Z" fill="black"/>
<path d="M99.869 46.2653H100.865V51.0874H99.869V46.2653Z" fill="black"/>
<path d="M111.266 51.0874H110.263L108.304 47.6622V51.0874H107.37V46.2653H108.421L110.332 49.6316V46.2653H111.266V51.0874Z" fill="black"/>
<path d="M119.854 51.0874H117.787V46.2653H119.854C120.151 46.2696 120.399 46.3045 120.596 46.3699C120.933 46.4812 121.205 46.6851 121.413 46.9817C121.58 47.2216 121.694 47.4812 121.755 47.7603C121.816 48.0395 121.846 48.3056 121.846 48.5586C121.846 49.1998 121.718 49.7428 121.462 50.1878C121.115 50.7875 120.579 51.0874 119.854 51.0874ZM120.599 47.4953C120.445 47.2336 120.14 47.1028 119.685 47.1028H118.76V50.2499H119.685C120.158 50.2499 120.488 50.0155 120.674 49.5466C120.776 49.2892 120.827 48.9828 120.827 48.6273C120.827 48.1365 120.751 47.7592 120.599 47.4953Z" fill="black"/>
</g>
<defs>
<clipPath id="clip0_1_780">
<rect width="170" height="67" fill="white"/>
</clipPath>
</defs>
</svg>
